<svg xmlns="http://www.w3.org/2000/svg"
     viewBox="0 0 64 64"
     fill="none">

  <!-- Ochranný kruh -->
  <circle cx="32" cy="32" r="20"
          stroke="black"
          stroke-width="5"/>

  <!-- Plamen (geometrický, silný) -->
  <path d="M32 18
           C28 26, 36 28, 32 36
           C28 42, 34 46, 32 50
           C40 44, 42 36, 36 28
           C34 24, 34 22, 32 18 Z"
        fill="black"/>

  <!-- 8 paprsků -->
  <g stroke="black" stroke-width="4" stroke-linecap="round">
    <line x1="32" y1="4"  x2="32" y2="10"/>
    <line x1="48" y1="10" x2="44" y2="14"/>
    <line x1="60" y1="32" x2="54" y2="32"/>
    <line x1="48" y1="54" x2="44" y2="50"/>
    <line x1="32" y1="60" x2="32" y2="54"/>
    <line x1="16" y1="54" x2="20" y2="50"/>
    <line x1="4"  y1="32" x2="10" y2="32"/>
    <line x1="16" y1="10" x2="20" y2="14"/>
  </g>

</svg>
